<?xml version="1.0" encoding="UTF-8"?>
<svg version="1.1" xmlns="http://www.w3.org/2000/svg" width="382" height="389">
<path d="M0 0 C126.06 0 252.12 0 382 0 C382 128.37 382 256.74 382 389 C255.94 389 129.88 389 0 389 C0 260.63 0 132.26 0 0 Z " fill="#FEFEFE" transform="translate(0,0)"/>
<path d="M0 0 C1.65 0 3.3 0 5 0 C5.23485107 0.77786865 5.46970215 1.5557373 5.71166992 2.35717773 C13.05897856 26.34641334 22.1129318 49.22942624 38 69 C38.44053711 69.55042969 38.88107422 70.10085938 39.33496094 70.66796875 C52.90644807 87.50470368 68.50129512 100.88180404 87 112 C87.66451172 112.40605469 88.32902344 112.81210937 89.01367188 113.23046875 C113.79398984 128.24184496 141.19663882 135.63969815 170 137 C170.81823242 137.03996094 171.63646484 137.07992187 172.47949219 137.12109375 C220.23862653 139.10033678 266.11386782 120.09217373 301 88 C326.36481664 64.29094222 341.81085952 33.11729838 351 0 C352.65 0 354.3 0 356 0 C351.81237305 32.77901099 331.59788547 63.7594156 309 87 C308.28577881 87.74491699 308.28577881 87.74491699 307.55712891 88.50488281 C298.53730474 97.90196198 288.7851117 105.73249396 278 113 C277.18273437 113.56460938 276.36546875 114.12921875 275.5234375 114.7109375 C256.32859136 127.52683175 232.69051952 136.23333353 210 140 C208.47451538 140.263573 208.47451538 140.263573 206.91821289 140.5324707 C197.61328988 142.01275182 188.57855132 142.31941354 179.1875 142.25 C178.43920929 142.24689819 177.69091858 142.24379639 176.91995239 142.24060059 C166.16649231 142.18832193 155.6003265 141.97827021 145 140 C143.71222656 139.76667969 142.42445313 139.53335938 141.09765625 139.29296875 C121.79207908 135.429995 102.90111122 128.0426203 86 118 C84.99066406 117.40445313 83.98132813 116.80890625 82.94140625 116.1953125 C70.8295748 108.7392347 60.22421439 99.81127649 50 90 C49.51112305 89.53835449 49.02224609 89.07670898 48.51855469 88.60107422 C30.30915723 71.3784846 15.43969247 48.63113892 7 25 C6.36964844 23.35257812 6.36964844 23.35257812 5.7265625 21.671875 C3.04188071 14.50237797 1.03782865 7.59009011 0 0 Z " fill="#153C32" transform="translate(13,233)"/>
<path d="M0 0 C1.16752808 -0.01052147 1.16752808 -0.01052147 2.35864258 -0.02125549 C4.85894615 -0.03867406 7.35901297 -0.04510828 9.859375 -0.046875 C10.71285522 -0.04754974 11.56633545 -0.04822449 12.44567871 -0.04891968 C25.05041933 -0.03306671 37.28537181 0.30671343 49.609375 3.203125 C50.33817871 3.36941406 51.06698242 3.53570312 51.81787109 3.70703125 C89.12322651 12.48667471 124.98487199 32.47822382 149.609375 62.203125 C150.34285156 63.02554688 151.07632812 63.84796875 151.83203125 64.6953125 C167.89771994 83.07792301 189.609375 115.68034801 189.609375 141.203125 C187.959375 141.203125 186.309375 141.203125 184.609375 141.203125 C184.30084595 140.18496704 184.30084595 140.18496704 183.98608398 139.14624023 C179.99002326 126.05684254 176.01949057 113.33851474 169.609375 101.203125 C169.12114258 100.25614746 169.12114258 100.25614746 168.62304688 99.29003906 C160.46057632 83.54591891 149.88919369 69.94271849 137.609375 57.203125 C136.95839844 56.50058594 136.30742187 55.79804687 135.63671875 55.07421875 C120.22431052 38.87646488 100.03454218 26.8996137 79.609375 18.203125 C78.5265625 17.73390625 77.44375 17.2646875 76.328125 16.78125 C42.26326245 2.84562441 -0.17724051 0.09528849 -35.390625 11.203125 C-36.6932201 11.58086107 -37.99663307 11.95578636 -39.30078125 12.328125 C-68.5420996 20.83579015 -93.82818102 36.86794905 -115.390625 58.203125 C-115.98858887 58.78425049 -116.58655273 59.36537598 -117.20263672 59.96411133 C-139.77718292 82.10394704 -152.57652414 111.38737927 -161.390625 141.203125 C-163.040625 141.203125 -164.690625 141.203125 -166.390625 141.203125 C-160.16681951 110.60274799 -145.39688558 82.34151498 -123.828125 59.76171875 C-121.80303814 57.63602661 -119.93481925 55.47293372 -118.078125 53.203125 C-90.42559149 21.54392987 -41.74728461 0.25261575 0 0 Z " fill="#143C32" transform="translate(179.390625,9.796875)"/>
<path d="M0 0 C0.33 2.31 0.66 4.62 1 7 C1.74443359 6.3503125 1.74443359 6.3503125 2.50390625 5.6875 C5.98574915 2.83331379 8.23259483 1.12790086 12.75 0.375 C16.48150652 1.09259741 17.76936609 1.96633788 20 5 C20 5.66 20 6.32 20 7 C20.928125 6.195625 21.85625 5.39125 22.8125 4.5625 C25.92849976 1.86196687 28.25518858 1.06771013 32.4375 0.6875 C36 1 36 1 38.18457031 2.58496094 C40.61019867 5.81173819 40.5413631 7.94042272 40.609375 11.953125 C40.62591125 12.61334656 40.64244751 13.27356812 40.65948486 13.95379639 C40.70788451 16.05262626 40.72931519 18.15073222 40.75 20.25 C40.77816683 21.6771196 40.80809528 23.10420559 40.83984375 24.53125 C40.91363763 28.02067609 40.96326279 31.50996472 41 35 C36.545 35.495 36.545 35.495 32 36 C31.67 28.08 31.34 20.16 31 12 C27.7 12 24.4 12 21 12 C21 19.59 21 27.18 21 35 C16.545 35.495 16.545 35.495 12 36 C11.505 24.12 11.505 24.12 11 12 C7.7 12 4.4 12 1 12 C1 19.59 1 27.18 1 35 C-3.455 35.495 -3.455 35.495 -8 36 C-7.99476318 35.3608667 -7.98952637 34.7217334 -7.98413086 34.06323242 C-7.9630573 31.10466537 -7.9502448 28.14611421 -7.9375 25.1875 C-7.92912109 24.18267578 -7.92074219 23.17785156 -7.91210938 22.14257812 C-7.89033681 15.37131176 -8.2630169 8.73089074 -9 2 C-2.25 0 -2.25 0 0 0 Z " fill="#0F372D" transform="translate(273,183)"/>
<path d="M0 0 C5.10209922 2.69544864 8.17381037 5.5214311 10 11 C10.74860187 19.10505481 9.62812679 25.84094798 4.625 32.375 C0.77523332 36.22476668 -1.55518645 36.86239871 -6.9375 37.375 C-11.25099975 37.24478114 -13.73512803 35.8852357 -17 33 C-21.23094191 27.49977551 -20.71942152 20.61221126 -20 14 C-18.30453396 8.00360599 -14.97369291 4.56808404 -10 1 C-6.78548618 -0.60725691 -3.48666924 -0.47397924 0 0 Z " fill="#0E372C" transform="translate(224,183)"/>
<path d="M0 0 C0 8.25 0 16.5 0 25 C2.97 22.525 2.97 22.525 6 20 C9.09173752 18.45413124 11.59429552 18.70640479 15 19 C18.06350895 21.21868587 18.90577626 22.44628802 19.54589844 26.20800781 C19.5668457 27.44389648 19.58779297 28.67978516 19.609375 29.953125 C19.63417938 30.94345734 19.63417938 30.94345734 19.65948486 31.95379639 C19.70788451 34.05262626 19.72931519 36.15073222 19.75 38.25 C19.77816683 39.6771196 19.80809528 41.10420559 19.83984375 42.53125 C19.91363763 46.02067609 19.96326279 49.50996472 20 53 C15.545 53.495 15.545 53.495 11 54 C10.505 42.12 10.505 42.12 10 30 C2.81989159 29.40371521 2.81989159 29.40371521 0 31 C0 38.26 0 45.52 0 53 C-4.455 53.495 -4.455 53.495 -9 54 C-9 36.51 -9 19.02 -9 1 C-4 0 -4 0 0 0 Z " fill="#0B3429" transform="translate(56,165)"/>
<path d="M0 0 C3.98066095 1.57724302 5.60667274 2.41000911 8 6 C8.265625 8.33984375 8.265625 8.33984375 8.25 10.9375 C8.25515625 11.79214844 8.2603125 12.64679688 8.265625 13.52734375 C8 16 8 16 6 20 C0.06 20.33 -5.88 20.66 -12 21 C-10.34922098 24.75170424 -10.34922098 24.75170424 -8 28 C-5.99334886 27.97366836 -5.99334886 27.97366836 -3.6875 27.6875 C-2.90761719 27.60886719 -2.12773437 27.53023437 -1.32421875 27.44921875 C1.08207271 26.98413721 2.87133832 26.19341444 5 25 C7 27 7 27 7 29.375 C5.58787167 33.08183688 3.39581856 34.09834161 0 36 C-3.73330108 37.24443369 -7.1288818 37.65860234 -11 37 C-14.80083143 34.92077055 -17.45454158 32.04629113 -19 28 C-19.73186135 21.08986721 -20.11860235 13.79339749 -16.39453125 7.6875 C-11.88479863 2.23034456 -7.3244333 -1.22073888 0 0 Z " fill="#0E372C" transform="translate(339,183)"/>
<path d="M0 0 C3.98066095 1.57724302 5.60667274 2.41000911 8 6 C8.265625 8.33984375 8.265625 8.33984375 8.25 10.9375 C8.25515625 11.79214844 8.2603125 12.64679688 8.265625 13.52734375 C7.97787003 16.20600399 7.56936896 17.806844 6 20 C4.15234375 20.609375 4.15234375 20.609375 1.9375 20.75 C1.1434375 20.80542969 0.349375 20.86085937 -0.46875 20.91796875 C-4.31867764 21.04273492 -8.14807036 21.06114174 -12 21 C-10.3672149 24.74667202 -10.3672149 24.74667202 -8 28 C-5.99334886 27.97366836 -5.99334886 27.97366836 -3.6875 27.6875 C-2.90761719 27.60886719 -2.12773438 27.53023437 -1.32421875 27.44921875 C1.08207271 26.98413721 2.87133832 26.19341444 5 25 C7 27 7 27 7 29.375 C5.58787167 33.08183688 3.39581856 34.09834161 0 36 C-3.73330108 37.24443369 -7.1288818 37.65860234 -11 37 C-14.80138093 34.92046995 -17.45863942 32.0478073 -19 28 C-19.84916871 20.98619303 -20.28872149 13.95970653 -16.375 7.8125 C-11.74143553 2.06123731 -7.60779755 -0.95097469 0 0 Z " fill="#0F382D" transform="translate(101,183)"/>
<path d="M0 0 C0.33 1.65 0.66 3.3 1 5 C1.639375 4.360625 2.27875 3.72125 2.9375 3.0625 C6.70968759 0.52204713 10.4303835 -0.82159201 15 0 C18.24667464 2.60850689 19.83607224 4.06726867 20.56762695 8.22973633 C20.54144287 9.41849365 20.51525879 10.60725098 20.48828125 11.83203125 C20.47216797 13.12431641 20.45605469 14.41660156 20.43945312 15.74804688 C20.39768274 17.10288157 20.35535809 18.45769928 20.3125 19.8125 C20.28740069 21.18680866 20.26459036 22.56116116 20.24414062 23.93554688 C20.18526461 27.29147976 20.1030642 30.6451809 20 34 C17.04335481 35.4783226 14.25770263 35.06032783 11 35 C11.01047363 34.31373535 11.02094727 33.6274707 11.03173828 32.92041016 C11.07321874 29.82197711 11.09930069 26.72360239 11.125 23.625 C11.14175781 22.54476562 11.15851563 21.46453125 11.17578125 20.3515625 C11.18222656 19.3203125 11.18867188 18.2890625 11.1953125 17.2265625 C11.20578613 16.27346191 11.21625977 15.32036133 11.22705078 14.33837891 C11.23131867 11.8076787 11.23131867 11.8076787 9 10 C4.545 10.495 4.545 10.495 0 11 C0 18.59 0 26.18 0 34 C-4.455 34.495 -4.455 34.495 -9 35 C-9 23.78 -9 12.56 -9 1 C-6.04335481 -0.4783226 -3.25770263 -0.06032783 0 0 Z " fill="#0D352B" transform="translate(156,184)"/>
<path d="M0 0 C10.89 0 21.78 0 33 0 C33 2.31 33 4.62 33 7 C28.71 7 24.42 7 20 7 C20.495 27.295 20.495 27.295 21 48 C17.7 48 14.4 48 11 48 C11.33 34.47 11.66 20.94 12 7 C8.04 7 4.08 7 0 7 C0 4.69 0 2.38 0 0 Z " fill="#083227" transform="translate(9,171)"/>
<path d="M0 0 C0.98484375 0.02707031 1.9696875 0.05414063 2.984375 0.08203125 C3.73203125 0.11683594 4.4796875 0.15164062 5.25 0.1875 C4.375 5.9375 4.375 5.9375 3.25 8.1875 C0.92843403 8.59479228 -1.4068787 8.93188677 -3.75 9.1875 C-4.08 12.8175 -4.41 16.4475 -4.75 20.1875 C-2.44 20.1875 -0.13 20.1875 2.25 20.1875 C2.25 22.1675 2.25 24.1475 2.25 26.1875 C-0.39 26.1875 -3.03 26.1875 -5.75 26.1875 C-5.42 35.0975 -5.09 44.0075 -4.75 53.1875 C-9.205 53.6825 -9.205 53.6825 -13.75 54.1875 C-13.75 44.9475 -13.75 35.7075 -13.75 26.1875 C-15.07 26.1875 -16.39 26.1875 -17.75 26.1875 C-17.75 24.2075 -17.75 22.2275 -17.75 20.1875 C-16.43 20.1875 -15.11 20.1875 -13.75 20.1875 C-13.79640625 19.630625 -13.8428125 19.07375 -13.890625 18.5 C-14.17066892 12.5790715 -13.30462489 8.03671049 -9.75 3.1875 C-6.56537309 0.12159822 -4.35419704 -0.15550704 0 0 Z " fill="#0E372C" transform="translate(199.75,164.8125)"/>
<path d="M0 0 C2.64 0 5.28 0 8 0 C8 15.84 8 31.68 8 48 C5.03 48 2.06 48 -1 48 C-1.02464296 41.32479118 -1.04283267 34.6496086 -1.05493164 27.97436523 C-1.05997325 25.70157409 -1.06680637 23.4287862 -1.07543945 21.15600586 C-1.08751261 17.89696449 -1.09322987 14.63796583 -1.09765625 11.37890625 C-1.10281754 10.35599991 -1.10797882 9.33309357 -1.11329651 8.27919006 C-1.11337204 7.33829025 -1.11344757 6.39739044 -1.11352539 5.42797852 C-1.115746 4.59524918 -1.11796661 3.76251984 -1.12025452 2.90455627 C-1 1 -1 1 0 0 Z " fill="#0C352A" transform="translate(129,171)"/>
<path d="M0 0 C0.33 2.64 0.66 5.28 1 8 C1.763125 7.05125 2.52625 6.1025 3.3125 5.125 C5.15534046 2.83390105 6.46837417 1.68775056 9 0 C9.99 0 10.98 0 12 0 C12 3.63 12 7.26 12 11 C9.8034375 11.4640625 9.8034375 11.4640625 7.5625 11.9375 C4.49550444 12.41159649 4.49550444 12.41159649 2 14 C1.84344973 15.48638992 1.74933057 16.97949127 1.68359375 18.47265625 C1.64169922 19.37177734 1.59980469 20.27089844 1.55664062 21.19726562 C1.49766602 22.61555664 1.49766602 22.61555664 1.4375 24.0625 C1.39431641 25.01189453 1.35113281 25.96128906 1.30664062 26.93945312 C1.20020868 29.29278176 1.09956846 31.64637099 1 34 C-3.455 34.495 -3.455 34.495 -8 35 C-8.33 23.78 -8.66 12.56 -9 1 C-5.68756695 0.17189174 -3.34023421 -0.09278428 0 0 Z " fill="#11392F" transform="translate(248,184)"/>
<path d="M0 0 C0.66 2.64 1.32 5.28 2 8 C2.54269531 7.4946875 3.08539063 6.989375 3.64453125 6.46875 C4.71767578 5.49421875 4.71767578 5.49421875 5.8125 4.5 C6.87404297 3.52546875 6.87404297 3.52546875 7.95703125 2.53125 C10 1 10 1 13 1 C12.67 4.63 12.34 8.26 12 12 C9.8034375 12.4640625 9.8034375 12.4640625 7.5625 12.9375 C4.49550444 13.41159649 4.49550444 13.41159649 2 15 C1.84344973 16.48638992 1.74933057 17.97949127 1.68359375 19.47265625 C1.64169922 20.37177734 1.59980469 21.27089844 1.55664062 22.19726562 C1.49766602 23.61555664 1.49766602 23.61555664 1.4375 25.0625 C1.39431641 26.01189453 1.35113281 26.96128906 1.30664062 27.93945312 C1.20020868 30.29278176 1.09956846 32.64637099 1 35 C-3.455 35.495 -3.455 35.495 -8 36 C-8 24.78 -8 13.56 -8 2 C-2 0 -2 0 0 0 Z " fill="#0E362C" transform="translate(361,183)"/>
<path d="M0 0 C3.5625 0.5625 3.5625 0.5625 6 2.5 C8.10767343 6.63103992 8.39316049 10.00984157 7.5625 14.5625 C6.45086893 16.91034148 5.22787664 18.53282223 3.5625 20.5625 C-2.92602996 20.07279963 -2.92602996 20.07279963 -5.14453125 17.859375 C-6.71504129 15.06946593 -6.83876927 13.24983782 -6.8125 10.0625 C-6.82023438 9.1240625 -6.82796875 8.185625 -6.8359375 7.21875 C-6.13218125 2.52704166 -4.68063704 0.76592243 0 0 Z " fill="#F6F8F7" transform="translate(218.4375,191.4375)"/>
<path d="M0 0 C2.25 0.8125 2.25 0.8125 3.25 1.8125 C3.25 3.7925 3.25 5.7725 3.25 7.8125 C-2.69 8.3075 -2.69 8.3075 -8.75 8.8125 C-7.75 3.8125 -7.75 3.8125 -5.5 1.4375 C-2.75 -0.1875 -2.75 -0.1875 0 0 Z " fill="#EBEFEE" transform="translate(335.75,190.1875)"/>
<path d="M0 0 C0.33 2.31 0.66 4.62 1 7 C-4.94 7.495 -4.94 7.495 -11 8 C-10 3 -10 3 -8.875 1.1875 C-5.99131838 -0.63883169 -3.32254207 -0.18806842 0 0 Z " fill="#F0F2F2" transform="translate(100,191)"/>
</svg>
