<?xml version="1.0" encoding="UTF-8"?>
<svg version="1.1" xmlns="http://www.w3.org/2000/svg" width="521" height="521">
<path d="M0 0 C171.93 0 343.86 0 521 0 C521 171.93 521 343.86 521 521 C349.07 521 177.14 521 0 521 C0 349.07 0 177.14 0 0 Z " fill="#063025" transform="translate(0,0)"/>
<path d="M0 0 C171.93 0 343.86 0 521 0 C521 171.93 521 343.86 521 521 C349.07 521 177.14 521 0 521 C0 349.07 0 177.14 0 0 Z M216 12 C215.2383252 12.13921875 214.47665039 12.2784375 213.69189453 12.421875 C175.36191428 19.50877912 136.96968468 37.08642539 107 62 C106.02160156 62.77730469 105.04320313 63.55460937 104.03515625 64.35546875 C89.77762723 75.9520718 75.9867158 89.23592611 65 104 C64.13965163 105.12004424 63.27895005 106.23981722 62.41796875 107.359375 C55.23502353 116.815356 48.97070584 126.74329813 43 137 C42.6380957 137.61246582 42.27619141 138.22493164 41.90332031 138.85595703 C32.50159704 154.90186464 25.40131876 172.94902178 21 191 C20.5153053 192.82838571 20.0295232 194.65648331 19.54296875 196.484375 C10.82532352 229.9963272 9.76043647 263.80168503 15 298 C15.13921875 298.91539551 15.2784375 299.83079102 15.421875 300.77392578 C17.07538644 311.22894083 19.51606905 321.39118284 22.4375 331.5625 C22.71368164 332.52559082 22.98986328 333.48868164 23.27441406 334.48095703 C31.72534073 362.78230141 46.71599641 390.78526357 65.68359375 413.42333984 C66.98532697 414.98242611 68.25983424 416.56067393 69.53125 418.14453125 C80.27891351 431.37179634 92.47092481 443.62837515 106 454 C107.44826172 455.17369141 107.44826172 455.17369141 108.92578125 456.37109375 C117.74845396 463.46743979 127.22374445 469.31395575 137 475 C137.77102051 475.44939941 138.54204102 475.89879883 139.33642578 476.36181641 C148.9481841 481.92609339 158.59098015 487.06398161 169 491 C169.80469727 491.30647461 170.60939453 491.61294922 171.43847656 491.92871094 C228.76987557 513.47791665 291.49767044 514.21960441 349 493 C349.93054199 492.65984863 350.86108398 492.31969727 351.81982422 491.96923828 C384.61506058 479.80037303 412.97071555 460.13686386 438 436 C438.81645996 435.22438721 438.81645996 435.22438721 439.64941406 434.43310547 C447.04336653 427.40312776 453.52908388 419.96286698 459.64550781 411.79882812 C460.98262246 410.02307817 462.34440877 408.26879577 463.7109375 406.515625 C479.16417243 386.41284225 490.89000354 362.98786643 499 339 C499.2484668 338.2786084 499.49693359 337.5572168 499.75292969 336.81396484 C504.82513414 321.86414043 507.61565047 306.58044982 510 291 C510.13422363 290.13552246 510.26844727 289.27104492 510.40673828 288.38037109 C519.73569282 225.57065892 500.70377943 160.4739202 463.39453125 109.86279297 C448.93113496 90.54281508 431.5518541 72.20591403 412 58 C410.95585937 57.23429687 409.91171875 56.46859375 408.8359375 55.6796875 C400.868448 50.00556967 392.55584826 44.99909461 384.05517578 40.17138672 C382.19275846 39.10986637 380.34427601 38.02741871 378.49609375 36.94140625 C367.49374014 30.72050779 355.75763039 26.40742061 343.91064453 22.06738281 C341.55733665 21.20438482 339.21328775 20.3221244 336.87109375 19.4296875 C329.27670551 16.68222964 321.58998976 14.93381255 313.6875 13.3125 C312.21204712 13.00832153 312.21204712 13.00832153 310.70678711 12.69799805 C294.27629461 9.50366169 278.0196818 8.62353325 261.3125 8.6875 C260.34677063 8.68899048 259.38104126 8.69048096 258.38604736 8.6920166 C244.06585139 8.73171838 230.08901115 9.22937013 216 12 Z " fill="#FEFEFE" transform="translate(0,0)"/>
<path d="M0 0 C58.74 0 117.48 0 178 0 C178 9.01012829 178 9.01012829 177.37890625 13.5234375 C177.24806641 14.48121094 177.11722656 15.43898437 176.98242188 16.42578125 C176.77456055 17.88564453 176.77456055 17.88564453 176.5625 19.375 C176.36043945 20.86966797 176.36043945 20.86966797 176.15429688 22.39453125 C175.13375235 29.7324953 175.13375235 29.7324953 174 32 C173.69208131 34.33077343 173.49104726 36.66241896 173.28125 39.00390625 C173 41 173 41 172 42 C170.18944975 42.09376053 168.37522799 42.1174411 166.56225586 42.11352539 C165.40112778 42.11344986 164.23999969 42.11337433 163.04368591 42.11329651 C161.14840904 42.10555458 161.14840904 42.10555458 159.21484375 42.09765625 C157.92888809 42.0962413 156.64293243 42.09482635 155.31800842 42.09336853 C151.89356557 42.08954418 148.46916491 42.07971462 145.04473877 42.06866455 C141.55261811 42.05844864 138.06049066 42.05387053 134.56835938 42.04882812 C127.71222222 42.03809227 120.85611313 42.02101684 114 42 C114.00092179 43.25658889 114.00184359 44.51317778 114.00279331 45.80784512 C114.0244295 75.60569832 114.04092965 105.4035495 114.05106533 135.20140862 C114.05231611 138.86531084 114.05361042 142.52921304 114.05493164 146.19311523 C114.05519395 146.92256293 114.05545626 147.65201062 114.05572652 148.40356279 C114.06008333 160.23016668 114.06797093 172.05676574 114.0771528 183.88336676 C114.08648904 196.00953435 114.09205555 208.1356994 114.09408849 220.26187044 C114.09546378 227.75037662 114.09981469 235.23886913 114.10791647 242.7273711 C114.11380427 248.45989625 114.11445904 254.19241254 114.11310768 259.92494011 C114.1133842 262.28369227 114.11539184 264.64244491 114.11920547 267.001194 C114.12413606 270.20633618 114.12300065 273.4114185 114.12025452 276.61656189 C114.12316736 277.56304043 114.1260802 278.50951898 114.12908131 279.48467869 C114.11412121 285.88587879 114.11412121 285.88587879 113 287 C111.4093669 287.09854422 109.81438523 287.12798694 108.22070312 287.12939453 C107.202948 287.13254669 106.18519287 287.13569885 105.13659668 287.13894653 C104.02933228 287.1369223 102.92206787 287.13489807 101.78125 287.1328125 C100.65303833 287.13376923 99.52482666 287.13472595 98.36242676 287.13571167 C95.97159774 287.13639368 93.58076689 287.13453797 91.18994141 287.13037109 C87.51590849 287.12502316 83.84199783 287.13031543 80.16796875 287.13671875 C77.85156223 287.13605797 75.53515578 287.13477682 73.21875 287.1328125 C72.1114856 287.13483673 71.00422119 287.13686096 69.86340332 287.13894653 C68.84564819 287.13579437 67.82789307 287.13264221 66.77929688 287.12939453 C65.87852417 287.12859894 64.97775146 287.12780334 64.04968262 287.12698364 C62 287 62 287 61 286 C60.90193498 282.86498304 60.87009606 279.75197883 60.87974548 276.61656189 C60.87889106 275.61932069 60.87803663 274.62207949 60.87715632 273.59461886 C60.8754985 270.22574046 60.8810278 266.85691098 60.88647461 263.48803711 C60.88675644 261.0839793 60.88659882 258.67992141 60.8860321 256.27586365 C60.88580379 251.08605914 60.88865512 245.89626585 60.89426994 240.70646477 C60.90238286 233.20280211 60.90499995 225.69914555 60.90625793 218.19547898 C60.90844878 206.02248711 60.91510976 193.84950192 60.92456055 181.67651367 C60.93373382 169.84871453 60.94081506 158.02091721 60.94506836 146.19311523 C60.94533108 145.46455104 60.94559381 144.73598684 60.94586449 143.98534494 C60.94716949 140.3305022 60.94843321 136.67565945 60.94967639 133.02081668 C60.96005003 102.68053861 60.97848888 72.3402728 61 42 C40.87 42 20.74 42 0 42 C0 28.14 0 14.28 0 0 Z " fill="#FBFCFC" transform="translate(134,115)"/>
<path d="M0 0 C17.16 0 34.32 0 52 0 C52 94.71 52 189.42 52 287 C34.84 287 17.68 287 0 287 C0 192.29 0 97.58 0 0 Z " fill="#FEFEFE" transform="translate(338,115)"/>
</svg>
